
<svg version="1.0" xmlns="http://www.w3.org/2000/svg"
 width="500.000000pt" height="500.000000pt" viewBox="0 0 500.000000 500.000000"
 preserveAspectRatio="xMidYMid meet">
<metadata>
Created by potrace 1.16, written by Peter Selinger 2001-2019
</metadata>
<g transform="translate(0.000000,500.000000) scale(0.100000,-0.100000)"
fill="#000" stroke="none">
<path d="M2336 4290 c-403 -46 -746 -209 -1037 -491 -228 -222 -401 -516 -490
-831 -32 -113 -32 -114 -73 -133 -22 -11 -66 -45 -97 -76 -166 -165 -184 -418
-44 -608 40 -54 147 -141 174 -141 6 0 15 -19 21 -42 63 -257 194 -525 364
-743 51 -66 215 -235 228 -235 24 0 -7 -29 -147 -136 -85 -65 -150 -120 -143
-122 7 -1 98 34 202 78 104 44 193 80 199 80 5 0 45 -23 88 -50 196 -126 440
-218 668 -252 161 -24 396 -21 551 7 544 97 1032 481 1278 1005 46 98 132 345
132 379 0 13 15 27 47 42 59 28 150 119 185 185 76 140 76 308 0 448 -34 64
-127 157 -180 182 -35 16 -44 26 -52 59 -54 215 -177 485 -297 655 -102 144
-321 359 -463 453 -208 138 -432 229 -658 268 -136 23 -344 32 -456 19z m1264
-1340 c201 -32 377 -199 425 -402 62 -263 -92 -531 -354 -621 l-66 -22 -1035
-3 c-922 -2 -1043 -1 -1108 13 -206 46 -360 197 -408 402 -31 131 0 297 74
406 75 108 215 202 338 225 70 14 2050 15 2134 2z"/>
<path d="M1878 2596 c-97 -26 -167 -114 -152 -193 10 -51 73 -117 131 -137
156 -53 327 34 325 165 -1 78 -69 148 -163 168 -62 13 -81 13 -141 -3z"/>
<path d="M3035 2531 c-47 -22 -109 -84 -124 -124 -15 -40 -4 -75 30 -92 38
-20 68 -7 102 43 50 76 144 76 194 0 31 -46 62 -62 98 -48 34 13 49 53 35 94
-13 41 -84 110 -132 131 -52 21 -153 19 -203 -4z"/>
</g>
</svg>
